<svg width="28" height="8" viewBox="0 0 28 8" fill="none" xmlns="http://www.w3.org/2000/svg">
<path d="M14 0C13.2089 0 12.4355 0.234596 11.7777 0.674122C11.1199 1.11365 10.6072 1.73836 10.3045 2.46927C10.0017 3.20017 9.92252 4.00444 10.0769 4.78036C10.2312 5.55629 10.6122 6.26902 11.1716 6.82843C11.731 7.38784 12.4437 7.7688 13.2196 7.92314C13.9956 8.07748 14.7998 7.99827 15.5307 7.69552C16.2616 7.39277 16.8864 6.88008 17.3259 6.22228C17.7654 5.56448 18 4.79113 18 4C18 2.93913 17.5786 1.92172 16.8284 1.17157C16.0783 0.421427 15.0609 0 14 0ZM14 6C13.6044 6 13.2178 5.8827 12.8889 5.66294C12.56 5.44318 12.3036 5.13082 12.1522 4.76537C12.0009 4.39992 11.9613 3.99778 12.0384 3.60982C12.1156 3.22186 12.3061 2.86549 12.5858 2.58579C12.8655 2.30608 13.2219 2.1156 13.6098 2.03843C13.9978 1.96126 14.3999 2.00087 14.7654 2.15224C15.1308 2.30362 15.4432 2.55996 15.6629 2.88886C15.8827 3.21776 16 3.60444 16 4C16 4.53043 15.7893 5.03914 15.4142 5.41421C15.0391 5.78929 14.5304 6 14 6ZM4 0C3.20888 0 2.43552 0.234596 1.77772 0.674122C1.11992 1.11365 0.607234 1.73836 0.304484 2.46927C0.00173312 3.20017 -0.0774802 4.00444 0.0768607 4.78036C0.231202 5.55629 0.612165 6.26902 1.17157 6.82843C1.73098 7.38784 2.44372 7.7688 3.21964 7.92314C3.99556 8.07748 4.79983 7.99827 5.53074 7.69552C6.26164 7.39277 6.88635 6.88008 7.32588 6.22228C7.76541 5.56448 8 4.79113 8 4C8 2.93913 7.57857 1.92172 6.82843 1.17157C6.07828 0.421427 5.06087 0 4 0ZM4 6C3.60444 6 3.21776 5.8827 2.88886 5.66294C2.55996 5.44318 2.30362 5.13082 2.15224 4.76537C2.00087 4.39992 1.96126 3.99778 2.03843 3.60982C2.1156 3.22186 2.30608 2.86549 2.58579 2.58579C2.86549 2.30608 3.22186 2.1156 3.60982 2.03843C3.99778 1.96126 4.39992 2.00087 4.76537 2.15224C5.13082 2.30362 5.44318 2.55996 5.66294 2.88886C5.8827 3.21776 6 3.60444 6 4C6 4.53043 5.78929 5.03914 5.41422 5.41421C5.03914 5.78929 4.53044 6 4 6ZM24 0C23.2089 0 22.4355 0.234596 21.7777 0.674122C21.1199 1.11365 20.6072 1.73836 20.3045 2.46927C20.0017 3.20017 19.9225 4.00444 20.0769 4.78036C20.2312 5.55629 20.6122 6.26902 21.1716 6.82843C21.731 7.38784 22.4437 7.7688 23.2196 7.92314C23.9956 8.07748 24.7998 7.99827 25.5307 7.69552C26.2616 7.39277 26.8864 6.88008 27.3259 6.22228C27.7654 5.56448 28 4.79113 28 4C28 2.93913 27.5786 1.92172 26.8284 1.17157C26.0783 0.421427 25.0609 0 24 0ZM24 6C23.6044 6 23.2178 5.8827 22.8889 5.66294C22.56 5.44318 22.3036 5.13082 22.1522 4.76537C22.0009 4.39992 21.9613 3.99778 22.0384 3.60982C22.1156 3.22186 22.3061 2.86549 22.5858 2.58579C22.8655 2.30608 23.2219 2.1156 23.6098 2.03843C23.9978 1.96126 24.3999 2.00087 24.7654 2.15224C25.1308 2.30362 25.4432 2.55996 25.6629 2.88886C25.8827 3.21776 26 3.60444 26 4C26 4.53043 25.7893 5.03914 25.4142 5.41421C25.0391 5.78929 24.5304 6 24 6Z" fill="#0CA5E6"/>
</svg>
