<svg width="37" height="37" viewBox="0 0 37 37" fill="none" xmlns="http://www.w3.org/2000/svg">
<path d="M18.5 0.5C8.27875 0.5 0 8.77875 0 19C0 27.1863 5.29562 34.1006 12.6494 36.5519C13.5744 36.7137 13.9213 36.1587 13.9213 35.6731C13.9213 35.2337 13.8981 33.7769 13.8981 32.2275C9.25 33.0831 8.0475 31.0944 7.6775 30.0537C7.46937 29.5219 6.5675 27.88 5.78125 27.4406C5.13375 27.0938 4.20875 26.2381 5.75812 26.215C7.215 26.1919 8.25562 27.5562 8.6025 28.1112C10.2675 30.9094 12.9269 30.1231 13.9906 29.6375C14.1525 28.435 14.6381 27.6256 15.17 27.1631C11.0538 26.7006 6.7525 25.105 6.7525 18.0287C6.7525 16.0169 7.46938 14.3519 8.64875 13.0569C8.46375 12.5944 7.81625 10.6981 8.83375 8.15438C8.83375 8.15438 10.3831 7.66875 13.9213 10.0506C15.4012 9.63438 16.9738 9.42625 18.5463 9.42625C20.1188 9.42625 21.6913 9.63438 23.1713 10.0506C26.7094 7.64563 28.2588 8.15438 28.2588 8.15438C29.2763 10.6981 28.6287 12.5944 28.4438 13.0569C29.6231 14.3519 30.34 15.9937 30.34 18.0287C30.34 25.1281 26.0156 26.7006 21.8994 27.1631C22.57 27.7412 23.1481 28.8512 23.1481 30.5856C23.1481 33.06 23.125 35.0488 23.125 35.6731C23.125 36.1587 23.4719 36.7369 24.3969 36.5519C28.0697 35.3123 31.2612 32.9521 33.5221 29.8034C35.783 26.6548 36.9994 22.8763 37 19C37 8.77875 28.7213 0.5 18.5 0.5Z" fill="#3361C2"/>
</svg>
