<svg width="401" height="145" viewBox="0 0 401 145" fill="none" xmlns="http://www.w3.org/2000/svg">
<g filter="url(#filter0_d_17_263)">
<path d="M18.1562 113V30.5H39.9531C44.5156 30.5 48.125 31.5156 50.7812 33.5469C53.4688 35.5781 55.3906 38.4688 56.5469 42.2188C57.7031 45.9688 58.2812 50.4375 58.2812 55.625C58.2812 60.625 57.7969 64.9844 56.8281 68.7031C55.8594 72.3906 54.125 75.25 51.625 77.2812C49.1562 79.3125 45.6406 80.3281 41.0781 80.3281H34.375V113H18.1562ZM34.375 65.5156H35.3125C38.375 65.5156 40.25 64.6562 40.9375 62.9375C41.625 61.2188 41.9688 58.6875 41.9688 55.3438C41.9688 52.2188 41.625 49.8125 40.9375 48.125C40.2812 46.4062 38.7031 45.5469 36.2031 45.5469H34.375V65.5156ZM68.3312 113V30.5H93.6437C97.8625 30.5 101.05 31.4688 103.206 33.4062C105.362 35.3125 106.8 38 107.519 41.4688C108.269 44.9062 108.644 48.9531 108.644 53.6094C108.644 58.1094 108.066 61.7031 106.909 64.3906C105.784 67.0781 103.644 68.9375 100.487 69.9688C103.081 70.5 104.894 71.7969 105.925 73.8594C106.987 75.8906 107.519 78.5312 107.519 81.7812V113H91.2531V80.7031C91.2531 78.2969 90.7531 76.8125 89.7531 76.25C88.7844 75.6562 87.2062 75.3594 85.0187 75.3594V113H68.3312ZM85.1125 61.0625H89.0969C91.3781 61.0625 92.5187 58.5781 92.5187 53.6094C92.5187 50.3906 92.2687 48.2812 91.7687 47.2812C91.2687 46.2812 90.3312 45.7812 88.9562 45.7812H85.1125V61.0625ZM138.569 113.75C131.975 113.75 126.928 111.766 123.428 107.797C119.959 103.797 118.225 98.0312 118.225 90.5V51.3125C118.225 44.25 119.944 38.8906 123.381 35.2344C126.85 31.5781 131.912 29.75 138.569 29.75C145.225 29.75 150.272 31.5781 153.709 35.2344C157.178 38.8906 158.912 44.25 158.912 51.3125V90.5C158.912 98.0312 157.162 103.797 153.662 107.797C150.194 111.766 145.162 113.75 138.569 113.75ZM138.709 98.5625C141.209 98.5625 142.459 96.1406 142.459 91.2969V51.0312C142.459 46.9688 141.241 44.9375 138.803 44.9375C136.053 44.9375 134.678 47.0156 134.678 51.1719V91.3906C134.678 93.9531 134.991 95.7969 135.616 96.9219C136.241 98.0156 137.272 98.5625 138.709 98.5625ZM188.65 113.75C184.931 113.75 181.541 113.031 178.478 111.594C175.416 110.156 172.978 108.031 171.166 105.219C169.384 102.375 168.494 98.8906 168.494 94.7656V74.0938H184.806V93.7812C184.806 95.2188 185.087 96.375 185.65 97.25C186.244 98.125 187.181 98.5625 188.462 98.5625C190.931 98.5625 192.166 97.0469 192.166 94.0156V30.5H208.806V92.375C208.806 96.75 207.947 100.547 206.228 103.766C204.509 106.953 202.134 109.422 199.103 111.172C196.072 112.891 192.587 113.75 188.65 113.75ZM219.981 113V30.5H252.981V46.4375H236.762V62.5156H252.325V78.0312H236.762V96.9219H254.059V113H219.981ZM283.562 113.75C277.594 113.75 272.781 111.891 269.125 108.172C265.5 104.453 263.688 99.25 263.688 92.5625V54.5C263.688 46.5 265.266 40.375 268.422 36.125C271.609 31.875 276.781 29.75 283.938 29.75C287.844 29.75 291.312 30.4687 294.344 31.9062C297.406 33.3438 299.812 35.5 301.562 38.375C303.312 41.2188 304.188 44.8125 304.188 49.1562V63.4062H287.781V51.2188C287.781 48.75 287.469 47.0938 286.844 46.25C286.219 45.375 285.25 44.9375 283.938 44.9375C282.406 44.9375 281.375 45.5 280.844 46.625C280.312 47.7188 280.047 49.1875 280.047 51.0312V92.3281C280.047 94.6094 280.375 96.2188 281.031 97.1562C281.719 98.0938 282.688 98.5625 283.938 98.5625C285.344 98.5625 286.328 97.9844 286.891 96.8281C287.484 95.6719 287.781 94.1719 287.781 92.3281V77.4688H304.375V93.0781C304.375 100.328 302.547 105.594 298.891 108.875C295.234 112.125 290.125 113.75 283.562 113.75ZM321.784 113V46.3438H311.987V30.5H348.081V46.3438H338.284V113H321.784ZM377.069 113.75C369.538 113.75 364.1 111.875 360.756 108.125C357.444 104.375 355.788 98.4062 355.788 90.2188V82.1562H372.1V92.4688C372.1 94.375 372.381 95.875 372.944 96.9688C373.538 98.0312 374.553 98.5625 375.991 98.5625C377.491 98.5625 378.522 98.125 379.084 97.25C379.678 96.375 379.975 94.9375 379.975 92.9375C379.975 90.4062 379.725 88.2969 379.225 86.6094C378.725 84.8906 377.85 83.2656 376.6 81.7344C375.381 80.1719 373.678 78.3594 371.491 76.2969L364.084 69.2656C358.553 64.0469 355.788 58.0781 355.788 51.3594C355.788 44.3281 357.413 38.9688 360.663 35.2812C363.944 31.5937 368.678 29.75 374.866 29.75C382.428 29.75 387.788 31.7656 390.944 35.7969C394.131 39.8281 395.725 45.9531 395.725 54.1719H378.944V48.5C378.944 47.375 378.616 46.5 377.959 45.875C377.334 45.25 376.475 44.9375 375.381 44.9375C374.069 44.9375 373.1 45.3125 372.475 46.0625C371.881 46.7812 371.584 47.7188 371.584 48.875C371.584 50.0312 371.897 51.2812 372.522 52.625C373.147 53.9688 374.381 55.5156 376.225 57.2656L385.741 66.4062C387.647 68.2188 389.397 70.1406 390.991 72.1719C392.584 74.1719 393.866 76.5156 394.834 79.2031C395.803 81.8594 396.288 85.1094 396.288 88.9531C396.288 96.7031 394.85 102.781 391.975 107.188C389.131 111.562 384.163 113.75 377.069 113.75Z" fill="#153D8C"/>
</g>
<path d="M8.23493 116.991C8.01298 117.021 7.79825 116.986 7.59074 116.885C7.39909 116.782 7.22981 116.547 7.08291 116.179C6.93385 115.796 6.80754 115.224 6.70398 114.463C6.48823 112.877 6.42525 111.287 6.51504 109.692C6.60483 108.098 6.83439 106.581 7.20373 105.142C7.57092 103.687 8.0638 102.385 8.6824 101.235C9.31468 100.067 10.0575 99.1182 10.9109 98.3885C11.7802 97.6566 12.7459 97.2184 13.8081 97.0738C14.9654 96.9163 15.9256 97.149 16.6885 97.7718C17.4493 98.3787 17.9182 99.3322 18.0951 100.632C18.2591 101.837 18.0541 102.882 17.4803 103.768C16.9223 104.651 16.0488 105.174 14.8597 105.335C14.6536 105.363 14.4295 105.378 14.1874 105.379C13.9431 105.363 13.6888 105.333 13.4243 105.289C14.6115 106.774 15.7695 108.046 16.8984 109.103C18.0273 110.16 19.1558 111.097 20.2841 111.912C21.426 112.709 22.5795 113.473 23.7445 114.202C23.9225 114.323 24.0608 114.45 24.1595 114.582C24.256 114.698 24.3162 114.843 24.3399 115.018C24.3766 115.287 24.3401 115.494 24.2305 115.638C24.1368 115.78 23.9076 115.876 23.543 115.925C23.1467 115.979 22.6315 115.872 21.9974 115.603C21.3792 115.332 20.6882 114.941 19.9245 114.432C19.1608 113.922 18.3784 113.334 17.5773 112.668C16.7762 112.002 15.9945 111.301 15.2323 110.565C14.4838 109.811 13.802 109.072 13.1868 108.349C12.5694 107.609 12.0637 106.919 11.6697 106.278C11.2916 105.635 11.0702 105.076 11.0054 104.6C10.9623 104.283 11.0081 104.027 11.1429 103.831C11.2756 103.619 11.4766 103.495 11.7462 103.458C12.0949 103.411 12.4185 103.415 12.7168 103.471C13.031 103.526 13.3545 103.53 13.6875 103.485C14.5594 103.366 15.2189 103.05 15.6658 102.537C16.1264 102.006 16.2855 101.218 16.1431 100.171C16.018 99.2517 15.3371 98.8761 14.1005 99.0444C13.2444 99.1609 12.4664 99.6139 11.7664 100.404C11.0644 101.177 10.4656 102.236 9.9702 103.579C9.49063 104.92 9.15656 106.499 8.96799 108.317C8.77726 110.119 8.76519 112.107 8.93177 114.28C9.00147 115.03 9.00564 115.595 8.94428 115.974C8.89878 116.352 8.81332 116.614 8.6879 116.76C8.57617 116.888 8.42518 116.965 8.23493 116.991ZM35.5912 103.095C35.6603 103.603 35.5697 104.124 35.3195 104.658C35.0671 105.177 34.7096 105.694 34.2468 106.209C33.7819 106.708 33.2582 107.191 32.6759 107.658C32.0935 108.125 31.5046 108.544 30.9093 108.916C30.314 109.288 29.7666 109.596 29.2672 109.842C29.2245 110.477 29.2355 111.033 29.3002 111.509C29.3412 111.81 29.4417 112.014 29.6016 112.122C29.7616 112.229 29.9922 112.262 30.2934 112.221C30.9592 112.131 31.6486 111.916 32.3613 111.576C33.0741 111.237 33.793 110.825 34.5181 110.338C35.2431 109.852 35.9332 109.346 36.5884 108.821C37.2436 108.296 37.8386 107.803 38.3734 107.343C38.9241 106.881 39.3814 106.504 39.7454 106.212C40.1094 105.92 40.3548 105.766 40.4816 105.748C40.6718 105.722 40.8232 105.766 40.9355 105.88C41.0616 105.976 41.1354 106.103 41.157 106.262C41.1743 106.389 41.0096 106.661 40.6628 107.08C40.332 107.496 39.875 107.995 39.2918 108.575C38.7065 109.139 38.0442 109.729 37.3046 110.347C36.5651 110.964 35.7896 111.554 34.9781 112.117C34.1824 112.677 33.3986 113.147 32.6267 113.527C31.8707 113.904 31.1756 114.136 30.5414 114.222C29.717 114.334 29.0329 114.112 28.489 113.557C27.9451 113.001 27.5847 112.073 27.4078 110.773C27.2891 109.901 27.2803 109.006 27.3815 108.088C27.4985 107.168 27.7001 106.277 27.9864 105.414C28.2864 104.534 28.639 103.743 29.0442 103.042C29.4631 102.323 29.9251 101.743 30.4304 101.303C30.9335 100.847 31.4466 100.583 31.9698 100.512C32.9686 100.376 33.7911 100.547 34.4374 101.024C35.0836 101.501 35.4682 102.192 35.5912 103.095ZM29.5174 107.943C29.9678 107.575 30.432 107.189 30.9099 106.784C31.3878 106.38 31.8249 105.974 32.2214 105.564C32.6178 105.155 32.9249 104.742 33.1426 104.325C33.3741 103.89 33.4617 103.466 33.4056 103.054C33.3258 102.467 32.9688 102.217 32.3347 102.303C31.9383 102.357 31.5527 102.668 31.1778 103.236C30.8167 103.786 30.4919 104.484 30.2034 105.33C29.9149 106.177 29.6862 107.048 29.5174 107.943ZM43.8929 112.744C43.116 112.85 42.4185 112.767 41.8003 112.496C41.1958 112.207 40.7041 111.798 40.3252 111.268C39.9463 110.738 39.7159 110.172 39.6339 109.569C39.4613 108.301 39.5257 107.114 39.8272 106.007C40.1266 104.884 40.5542 103.873 41.11 102.974C41.6795 102.057 42.2822 101.265 42.9179 100.597C43.5696 99.9267 44.1692 99.4091 44.717 99.0439C45.2784 98.6607 45.686 98.4519 45.9397 98.4173C46.447 98.3483 46.7352 98.5674 46.8042 99.0748C46.8366 99.3126 46.7158 99.6116 46.4419 99.9718C46.1658 100.316 45.81 100.728 45.3747 101.207C44.9393 101.686 44.4798 102.225 43.9961 102.824C43.5102 103.407 43.0658 104.056 42.6628 104.773C42.2576 105.474 41.9504 106.243 41.7412 107.079C41.5299 107.899 41.4878 108.776 41.6151 109.712C41.7446 110.663 42.1977 111.086 42.9746 110.98C43.688 110.883 44.3989 110.649 45.1074 110.278C45.8317 109.905 46.5294 109.455 47.2004 108.927C47.8851 108.382 48.536 107.825 49.153 107.257C49.7699 106.688 50.3268 106.152 50.8234 105.649C51.3179 105.129 51.737 104.709 52.0808 104.388C52.4246 104.066 52.6758 103.895 52.8344 103.873C53.1514 103.83 53.3337 103.983 53.3812 104.332C53.4179 104.601 53.2841 104.983 52.9798 105.476C52.6756 105.97 52.2499 106.52 51.7028 107.128C51.1557 107.735 50.5384 108.36 49.8507 109.003C49.161 109.629 48.4578 110.218 47.7414 110.767C47.0228 111.301 46.3252 111.751 45.6484 112.118C44.9854 112.466 44.4002 112.675 43.8929 112.744ZM61.4854 99.5717C61.5544 100.079 61.4638 100.6 61.2136 101.135C60.9613 101.653 60.6037 102.17 60.1409 102.685C59.676 103.185 59.1524 103.668 58.57 104.134C57.9876 104.601 57.3988 105.02 56.8035 105.392C56.2081 105.764 55.6608 106.072 55.1613 106.318C55.1186 106.954 55.1296 107.509 55.1944 107.985C55.2354 108.286 55.3358 108.49 55.4958 108.598C55.6557 108.705 55.8863 108.738 56.1875 108.697C56.8534 108.607 57.5427 108.392 58.2555 108.053C58.9682 107.713 59.6871 107.301 60.4122 106.815C61.1373 106.328 61.8274 105.823 62.4826 105.297C63.1377 104.772 63.7327 104.28 64.2675 103.819C64.8182 103.357 65.2755 102.98 65.6395 102.688C66.0035 102.396 66.2489 102.242 66.3757 102.224C66.566 102.199 66.7173 102.243 66.8297 102.356C66.9558 102.452 67.0296 102.58 67.0512 102.738C67.0684 102.865 66.9037 103.138 66.557 103.556C66.2261 103.973 65.7691 104.471 65.186 105.051C64.6007 105.615 63.9383 106.205 63.1988 106.823C62.4593 107.44 61.6837 108.03 60.8722 108.593C60.0765 109.153 59.2927 109.623 58.5208 110.003C57.7648 110.38 57.0697 110.612 56.4356 110.698C55.6112 110.81 54.927 110.589 54.3831 110.033C53.8392 109.477 53.4788 108.549 53.3019 107.249C53.1832 106.377 53.1745 105.482 53.2756 104.564C53.3926 103.644 53.5942 102.753 53.8806 101.89C54.1806 101.01 54.5332 100.219 54.9383 99.518C55.3572 98.7989 55.8193 98.2193 56.3245 97.7792C56.8276 97.3232 57.3408 97.0596 57.8639 96.9884C58.8627 96.8525 59.6853 97.0231 60.3315 97.5003C60.9778 97.9775 61.3624 98.668 61.4854 99.5717ZM55.4115 104.419C55.862 104.051 56.3262 103.665 56.804 103.261C57.2819 102.856 57.7191 102.45 58.1155 102.041C58.5119 101.631 58.819 101.218 59.0368 100.801C59.2682 100.366 59.3559 99.9422 59.2998 99.53C59.22 98.9434 58.863 98.6932 58.2288 98.7795C57.8325 98.8335 57.4469 99.1443 57.072 99.7121C56.7108 100.262 56.386 100.96 56.0975 101.807C55.809 102.653 55.5804 103.524 55.4115 104.419ZM68.1854 108.542C67.7256 108.605 67.2778 108.399 66.842 107.926C66.4062 107.452 66.1322 106.803 66.02 105.979C65.897 105.075 65.8843 104.092 65.9819 103.029C66.0953 101.964 66.262 100.875 66.4821 99.7636C66.7001 98.6359 66.9155 97.549 67.1283 96.5027C67.1795 96.2858 67.27 96.1201 67.3998 96.0056C67.5432 95.873 67.7735 95.7852 68.0905 95.742C68.6613 95.6643 68.9844 95.903 69.0599 96.4578C69.0772 96.5847 69.0526 96.8787 68.9862 97.3398C68.9197 97.801 68.8277 98.3706 68.7101 99.0487C68.6083 99.7246 68.5061 100.457 68.4036 101.246C68.2989 102.019 68.219 102.797 68.1641 103.58C68.1091 104.362 68.0941 105.083 68.1192 105.741C68.3361 105.437 68.5654 104.986 68.807 104.388C69.0644 103.788 69.3359 103.113 69.6215 102.364C69.9049 101.599 70.2041 100.831 70.5192 100.062C70.8322 99.2766 71.1538 98.5546 71.484 97.8961C71.8279 97.2196 72.1732 96.672 72.5199 96.2534C72.8804 95.8168 73.235 95.5748 73.5838 95.5273C74.0911 95.4583 74.5407 95.5586 74.9326 95.8282C75.3383 96.0798 75.6891 96.5811 75.985 97.332C76.2947 98.065 76.5445 99.129 76.7343 100.524C76.8357 101.269 77.002 101.957 77.2331 102.588C77.4801 103.216 77.7971 103.706 78.1839 104.057C78.5845 104.39 79.0543 104.52 79.5933 104.446C80.4019 104.336 81.1038 104.096 81.6991 103.724C82.2923 103.336 82.7939 102.929 83.2041 102.502C83.6279 102.057 83.979 101.67 84.2572 101.341C84.5333 100.997 84.7585 100.813 84.9329 100.789C85.2976 100.739 85.5058 100.905 85.5575 101.285C85.5791 101.444 85.4947 101.714 85.3044 102.095C85.1277 102.458 84.8624 102.882 84.5085 103.366C84.1682 103.832 83.7635 104.299 83.2943 104.766C82.8387 105.216 82.3349 105.607 81.7828 105.941C81.2466 106.272 80.6852 106.478 80.0986 106.558C79.0047 106.706 78.0798 106.614 77.324 106.281C76.584 105.946 75.9807 105.309 75.514 104.372C75.0632 103.432 74.7256 102.138 74.5012 100.489C74.3782 99.5853 74.2332 98.9349 74.0661 98.5378C73.9127 98.1227 73.6916 97.8621 73.4026 97.7561C73.2577 98.1149 73.0767 98.624 72.8596 99.2833C72.6404 99.9267 72.3833 100.648 72.0883 101.447C71.8092 102.244 71.5074 103.052 71.183 103.871C70.8722 104.672 70.5459 105.419 70.2041 106.112C69.8624 106.804 69.5203 107.375 69.1779 107.826C68.8333 108.26 68.5025 108.499 68.1854 108.542ZM82.0876 99.4565C81.6553 99.4831 81.4193 99.2326 81.3798 98.7051C81.3784 98.5761 81.4451 98.4136 81.5799 98.2177C81.7126 98.0059 81.8809 97.878 82.0848 97.8341C82.5698 97.7196 83.1626 97.5663 83.863 97.3741C84.5772 97.1639 85.3606 96.9281 86.2131 96.6668C86.2659 95.8683 86.3451 95.026 86.4505 94.1397C86.556 93.2533 86.6884 92.3876 86.8479 91.5424C87.0053 90.6813 87.1892 89.8973 87.3998 89.1905C87.6104 88.4836 87.8563 87.9173 88.1375 87.4915C88.2881 87.2933 88.4305 87.1529 88.5645 87.07C88.6964 86.9713 88.8179 86.9145 88.9289 86.8994C89.1508 86.8691 89.3381 86.9405 89.4909 87.1135C89.6594 87.2844 89.7599 87.4887 89.7923 87.7265C89.8095 87.8533 89.803 87.9834 89.7727 88.1167C89.5764 89.0476 89.3845 90.1879 89.1967 91.5376C89.009 92.8872 88.8137 94.359 88.6108 95.9529C90.037 95.5166 91.461 95.0645 92.8829 94.5965C94.3047 94.1285 95.5238 93.7123 96.5399 93.3479C96.8239 93.1801 97.057 93.1726 97.2393 93.3254C97.4374 93.4761 97.5483 93.6386 97.5721 93.813C97.6023 94.035 97.5615 94.2101 97.4498 94.3383C97.3539 94.4644 97.2479 94.5757 97.1319 94.6722L97.1113 94.6992C96.8115 94.8692 96.3564 95.0845 95.746 95.3452C95.1334 95.5901 94.4279 95.8637 93.6293 96.1662C92.8287 96.4527 91.9725 96.7469 91.0609 97.0486C90.1651 97.3481 89.2751 97.6307 88.3908 97.8963C88.216 99.3411 88.0387 100.827 87.8589 102.353C87.6927 103.861 87.5233 105.345 87.3507 106.806C87.2698 107.398 87.1361 107.78 86.9494 107.951C86.7807 108.135 86.5854 108.242 86.3634 108.272C86.1098 108.307 85.8749 108.242 85.6587 108.078C85.4585 107.911 85.3818 107.526 85.4288 106.922L86.0613 98.5767C85.1295 98.8488 84.3032 99.0662 83.5826 99.2289C82.8778 99.3894 82.3795 99.4653 82.0876 99.4565Z" fill="#0CA4E6"/>
<defs>
<filter id="filter0_d_17_263" x="14.1562" y="29.75" width="386.131" height="92" filterUnits="userSpaceOnUse" color-interpolation-filters="sRGB">
<feFlood flood-opacity="0" result="BackgroundImageFix"/>
<feColorMatrix in="SourceAlpha" type="matrix" values="0 0 0 0 0 0 0 0 0 0 0 0 0 0 0 0 0 0 127 0" result="hardAlpha"/>
<feOffset dy="4"/>
<feGaussianBlur stdDeviation="2"/>
<feComposite in2="hardAlpha" operator="out"/>
<feColorMatrix type="matrix" values="0 0 0 0 0 0 0 0 0 0 0 0 0 0 0 0 0 0 0.25 0"/>
<feBlend mode="normal" in2="BackgroundImageFix" result="effect1_dropShadow_17_263"/>
<feBlend mode="normal" in="SourceGraphic" in2="effect1_dropShadow_17_263" result="shape"/>
</filter>
</defs>
</svg>
