<svg width="36" height="36" viewBox="0 0 36 36" fill="none" xmlns="http://www.w3.org/2000/svg">
<path d="M31.4167 0.75C32.4333 0.75 33.4084 1.15387 34.1272 1.87276C34.8461 2.59165 35.25 3.56667 35.25 4.58333V31.4167C35.25 32.4333 34.8461 33.4084 34.1272 34.1272C33.4084 34.8461 32.4333 35.25 31.4167 35.25H4.58333C3.56667 35.25 2.59165 34.8461 1.87276 34.1272C1.15387 33.4084 0.75 32.4333 0.75 31.4167V4.58333C0.75 3.56667 1.15387 2.59165 1.87276 1.87276C2.59165 1.15387 3.56667 0.75 4.58333 0.75H31.4167ZM30.4583 30.4583V20.3C30.4583 18.6428 29.8 17.0536 28.6282 15.8818C27.4564 14.71 25.8672 14.0517 24.21 14.0517C22.5808 14.0517 20.6833 15.0483 19.7633 16.5433V14.4158H14.4158V30.4583H19.7633V21.0092C19.7633 19.5333 20.9517 18.3258 22.4275 18.3258C23.1392 18.3258 23.8217 18.6085 24.3249 19.1118C24.8281 19.615 25.1108 20.2975 25.1108 21.0092V30.4583H30.4583ZM8.18667 11.4067C9.04066 11.4067 9.85968 11.0674 10.4636 10.4636C11.0674 9.85968 11.4067 9.04066 11.4067 8.18667C11.4067 6.40417 9.96917 4.9475 8.18667 4.9475C7.32759 4.9475 6.50369 5.28877 5.89623 5.89623C5.28877 6.50369 4.9475 7.32759 4.9475 8.18667C4.9475 9.96917 6.40417 11.4067 8.18667 11.4067ZM10.8508 30.4583V14.4158H5.54167V30.4583H10.8508Z" fill="#3361C2"/>
</svg>
