<svg width="46" height="46" viewBox="0 0 46 46" fill="none" xmlns="http://www.w3.org/2000/svg">
<path d="M38.3333 34.5H34.5V17.7292L23 24.9167L11.5 17.7292V34.5H7.66666V11.5H9.96666L23 19.6458L36.0333 11.5H38.3333M38.3333 7.66666H7.66666C5.53916 7.66666 3.83333 9.37249 3.83333 11.5V34.5C3.83333 35.5167 4.2372 36.4917 4.95609 37.2106C5.67497 37.9295 6.65 38.3333 7.66666 38.3333H38.3333C39.35 38.3333 40.325 37.9295 41.0439 37.2106C41.7628 36.4917 42.1667 35.5167 42.1667 34.5V11.5C42.1667 10.4833 41.7628 9.5083 41.0439 8.78941C40.325 8.07052 39.35 7.66666 38.3333 7.66666Z" fill="#3361C2"/>
</svg>
