<svg width="1509" height="941" viewBox="0 0 1509 941" fill="none" xmlns="http://www.w3.org/2000/svg">
<path d="M72.2344 470V126.25H177.703C195.281 126.25 208.562 130.286 217.547 138.359C226.531 146.302 232.521 157.5 235.516 171.953C238.641 186.276 240.203 203.138 240.203 222.539C240.203 241.289 237.794 256.263 232.977 267.461C228.289 278.659 219.37 286.406 206.219 290.703C217.026 292.917 224.578 298.32 228.875 306.914C233.302 315.378 235.516 326.38 235.516 339.922V470H167.742V335.43C167.742 325.404 165.659 319.219 161.492 316.875C157.456 314.401 150.88 313.164 141.766 313.164V470H72.2344ZM142.156 253.594H158.758C168.263 253.594 173.016 243.242 173.016 222.539C173.016 209.128 171.974 200.339 169.891 196.172C167.807 192.005 163.901 189.922 158.172 189.922H142.156V253.594ZM344.891 473.125C317.417 473.125 296.388 464.857 281.805 448.32C267.352 431.654 260.125 407.63 260.125 376.25V212.969C260.125 183.542 267.286 161.211 281.609 145.977C296.062 130.742 317.156 123.125 344.891 123.125C372.625 123.125 393.654 130.742 407.977 145.977C422.43 161.211 429.656 183.542 429.656 212.969V376.25C429.656 407.63 422.365 431.654 407.781 448.32C393.328 464.857 372.365 473.125 344.891 473.125ZM345.477 409.844C355.893 409.844 361.102 399.753 361.102 379.57V211.797C361.102 194.87 356.023 186.406 345.867 186.406C334.409 186.406 328.68 195.065 328.68 212.383V379.961C328.68 390.638 329.982 398.32 332.586 403.008C335.19 407.565 339.487 409.844 345.477 409.844ZM457.391 470V126.25H550.555C575.555 126.25 593.719 132.37 605.047 144.609C616.505 156.719 622.234 176.771 622.234 204.766V219.805C622.234 235.951 619.305 249.036 613.445 259.062C607.716 269.089 598.927 275.664 587.078 278.789C602.573 282.695 612.924 291.875 618.133 306.328C623.471 320.651 626.141 338.164 626.141 358.867C626.141 381.133 624.057 400.599 619.891 417.266C615.724 433.932 608.172 446.888 597.234 456.133C586.297 465.378 570.737 470 550.555 470H457.391ZM524.578 255.742H538.641C545.021 255.742 549.122 253.268 550.945 248.32C552.768 243.372 553.68 237.448 553.68 230.547V195.977C553.68 184.909 548.797 179.375 539.031 179.375H524.578V255.742ZM531.414 409.453C549.253 409.453 558.172 400.99 558.172 384.062V341.094C558.172 331.328 556.674 323.646 553.68 318.047C550.815 312.318 545.346 309.453 537.273 309.453H524.578V409.062C527.443 409.323 529.721 409.453 531.414 409.453ZM730.828 473.125C703.354 473.125 682.326 464.857 667.742 448.32C653.289 431.654 646.062 407.63 646.062 376.25V212.969C646.062 183.542 653.224 161.211 667.547 145.977C682 130.742 703.094 123.125 730.828 123.125C758.562 123.125 779.591 130.742 793.914 145.977C808.367 161.211 815.594 183.542 815.594 212.969V376.25C815.594 407.63 808.302 431.654 793.719 448.32C779.266 464.857 758.302 473.125 730.828 473.125ZM731.414 409.844C741.831 409.844 747.039 399.753 747.039 379.57V211.797C747.039 194.87 741.961 186.406 731.805 186.406C720.346 186.406 714.617 195.065 714.617 212.383V379.961C714.617 390.638 715.919 398.32 718.523 403.008C721.128 407.565 725.424 409.844 731.414 409.844ZM872.82 470V192.266H832V126.25H982.391V192.266H941.57V470H872.82ZM998.406 470V126.25H1064.81V470H998.406ZM1172.23 473.125C1147.36 473.125 1127.31 465.378 1112.08 449.883C1096.97 434.388 1089.42 412.708 1089.42 384.844V226.25C1089.42 192.917 1096 167.396 1109.15 149.688C1122.43 131.979 1143.98 123.125 1173.8 123.125C1190.07 123.125 1204.53 126.12 1217.16 132.109C1229.92 138.099 1239.94 147.083 1247.23 159.062C1254.53 170.911 1258.17 185.885 1258.17 203.984V263.359H1189.81V212.578C1189.81 202.292 1188.51 195.391 1185.91 191.875C1183.3 188.229 1179.27 186.406 1173.8 186.406C1167.42 186.406 1163.12 188.75 1160.91 193.438C1158.69 197.995 1157.59 204.115 1157.59 211.797V383.867C1157.59 393.372 1158.95 400.078 1161.69 403.984C1164.55 407.891 1168.59 409.844 1173.8 409.844C1179.66 409.844 1183.76 407.435 1186.1 402.617C1188.58 397.799 1189.81 391.549 1189.81 383.867V321.953H1258.95V386.992C1258.95 417.201 1251.34 439.141 1236.1 452.812C1220.87 466.354 1199.58 473.125 1172.23 473.125ZM1363.64 473.125C1332.26 473.125 1309.6 465.312 1295.67 449.688C1281.87 434.062 1274.97 409.193 1274.97 375.078V341.484H1342.94V384.453C1342.94 392.396 1344.11 398.646 1346.45 403.203C1348.93 407.63 1353.16 409.844 1359.15 409.844C1365.4 409.844 1369.7 408.021 1372.04 404.375C1374.51 400.729 1375.75 394.74 1375.75 386.406C1375.75 375.859 1374.71 367.07 1372.62 360.039C1370.54 352.878 1366.9 346.107 1361.69 339.727C1356.61 333.216 1349.51 325.664 1340.4 317.07L1309.54 287.773C1286.49 266.029 1274.97 241.159 1274.97 213.164C1274.97 183.867 1281.74 161.536 1295.28 146.172C1308.95 130.807 1328.68 123.125 1354.46 123.125C1385.97 123.125 1408.3 131.523 1421.45 148.32C1434.73 165.117 1441.38 190.638 1441.38 224.883H1371.45V201.25C1371.45 196.562 1370.09 192.917 1367.35 190.312C1364.75 187.708 1361.17 186.406 1356.61 186.406C1351.14 186.406 1347.1 187.969 1344.5 191.094C1342.03 194.089 1340.79 197.995 1340.79 202.812C1340.79 207.63 1342.09 212.839 1344.7 218.438C1347.3 224.036 1352.44 230.482 1360.12 237.773L1399.77 275.859C1407.72 283.411 1415.01 291.419 1421.65 299.883C1428.29 308.216 1433.63 317.982 1437.66 329.18C1441.7 340.247 1443.72 353.789 1443.72 369.805C1443.72 402.096 1437.73 427.422 1425.75 445.781C1413.9 464.01 1393.2 473.125 1363.64 473.125Z" fill="#061A42"/>
<path d="M13.3301 826V525.219H133.643V583.324H74.5117V641.942H131.25V698.51H74.5117V767.382H137.573V826H13.3301ZM157.568 826V525.219H219.434L247.119 669.286V525.219H305.225V826H246.436L216.357 675.609V826H157.568ZM357.69 826V582.982H321.973V525.219H453.564V582.982H417.847V826H357.69ZM470.312 826V525.219H530.127V632.714H558.496V525.219H618.311V826H558.496V689.623H530.127V826H470.312ZM714.526 828.734C689.461 828.734 671.004 821.728 659.155 807.714C647.306 793.586 641.382 772.851 641.382 745.507V525.219H699.829V743.114C699.829 748.127 700.114 752.969 700.684 757.641C701.253 762.198 702.563 765.958 704.614 768.92C706.665 771.882 709.969 773.363 714.526 773.363C719.198 773.363 722.559 771.939 724.609 769.091C726.66 766.129 727.913 762.312 728.369 757.641C728.939 752.969 729.224 748.127 729.224 743.114V525.219H787.671V745.507C787.671 772.851 781.746 793.586 769.897 807.714C758.049 821.728 739.591 828.734 714.526 828.734ZM882.178 828.734C854.72 828.734 834.896 821.898 822.705 808.227C810.628 794.555 804.59 772.794 804.59 742.943V713.549H864.062V751.146C864.062 758.096 865.088 763.565 867.139 767.553C869.303 771.426 873.006 773.363 878.247 773.363C883.716 773.363 887.476 771.768 889.526 768.578C891.691 765.388 892.773 760.147 892.773 752.855C892.773 743.627 891.862 735.937 890.039 729.784C888.216 723.518 885.026 717.593 880.469 712.011C876.025 706.314 869.816 699.706 861.841 692.187L834.839 666.552C814.673 647.525 804.59 625.764 804.59 601.269C804.59 575.634 810.514 556.094 822.363 542.65C834.326 529.206 851.587 522.484 874.146 522.484C901.717 522.484 921.257 529.833 932.764 544.53C944.385 559.228 950.195 581.558 950.195 611.522H889.014V590.844C889.014 586.742 887.817 583.552 885.425 581.273C883.146 578.995 880.013 577.855 876.025 577.855C871.24 577.855 867.708 579.223 865.43 581.957C863.265 584.577 862.183 587.995 862.183 592.211C862.183 596.426 863.322 600.984 865.601 605.883C867.879 610.782 872.38 616.422 879.102 622.802L913.794 656.127C920.744 662.735 927.124 669.742 932.935 677.147C938.745 684.439 943.416 692.984 946.948 702.782C950.48 712.466 952.246 724.315 952.246 738.329C952.246 766.584 947.005 788.744 936.523 804.809C926.156 820.759 908.04 828.734 882.178 828.734ZM969.678 826V525.219H1027.78V826H969.678ZM1043.51 826L1072.56 525.219H1174.58L1203.12 826H1146.22L1141.94 777.465H1105.71L1101.95 826H1043.51ZM1109.99 729.442H1137.33L1124.17 576.488H1121.44L1109.99 729.442ZM1293.02 828.734C1265.56 828.734 1245.74 821.898 1233.54 808.227C1221.47 794.555 1215.43 772.794 1215.43 742.943V713.549H1274.9V751.146C1274.9 758.096 1275.93 763.565 1277.98 767.553C1280.14 771.426 1283.85 773.363 1289.09 773.363C1294.56 773.363 1298.32 771.768 1300.37 768.578C1302.53 765.388 1303.61 760.147 1303.61 752.855C1303.61 743.627 1302.7 735.937 1300.88 729.784C1299.06 723.518 1295.87 717.593 1291.31 712.011C1286.87 706.314 1280.66 699.706 1272.68 692.187L1245.68 666.552C1225.51 647.525 1215.43 625.764 1215.43 601.269C1215.43 575.634 1221.35 556.094 1233.2 542.65C1245.17 529.206 1262.43 522.484 1284.99 522.484C1312.56 522.484 1332.1 529.833 1343.6 544.53C1355.22 559.228 1361.04 581.558 1361.04 611.522H1299.85V590.844C1299.85 586.742 1298.66 583.552 1296.26 581.273C1293.99 578.995 1290.85 577.855 1286.87 577.855C1282.08 577.855 1278.55 579.223 1276.27 581.957C1274.1 584.577 1273.02 587.995 1273.02 592.211C1273.02 596.426 1274.16 600.984 1276.44 605.883C1278.72 610.782 1283.22 616.422 1289.94 622.802L1324.63 656.127C1331.58 662.735 1337.96 669.742 1343.77 677.147C1349.58 684.439 1354.26 692.984 1357.79 702.782C1361.32 712.466 1363.09 724.315 1363.09 738.329C1363.09 766.584 1357.85 788.744 1347.36 804.809C1337 820.759 1318.88 828.734 1293.02 828.734ZM1409.06 826V582.982H1373.34V525.219H1504.93V582.982H1469.21V826H1409.06Z" fill="#081E48"/>
</svg>
